# 3ds Max Wavefront OBJ Exporter v0.97b - (c)2007 guruware
# File Created: 14.07.2013 11:47:34

#
# object Box001
#

v  4.1920 0.0000 8.9452
v  4.1920 0.0000 1.4649
v  8.8095 0.0000 1.4649
v  8.8095 0.0000 8.9452
v  6.5008 7.2388 8.9452
v  6.5008 7.2388 1.4649
v  3.9147 4.8250 1.4649
v  3.9147 4.8250 8.9452
v  8.8095 4.5465 8.9452
v  6.5008 6.8458 8.9452
v  4.1920 4.5465 8.9452
v  8.8095 4.5465 1.4649
v  4.1920 4.5465 1.4649
v  6.5008 6.8458 1.4649
v  9.0868 4.8250 8.9452
v  9.0868 4.8250 1.4649
v  3.9951 4.3504 9.2231
v  6.5008 6.8458 9.3382
v  6.5008 7.2388 9.3382
v  3.7157 4.6268 9.2202
v  9.0064 4.3504 9.2231
v  9.2858 4.6268 9.2202
v  9.0064 4.3504 1.1870
v  9.2858 4.6268 1.1899
v  6.5008 6.8458 1.0719
v  6.5008 7.2388 1.0719
v  3.9951 4.3504 1.1870
v  3.7157 4.6268 1.1899
v  1.3247 0.0000 7.5784
v  1.3247 0.0000 2.9717
v  4.3200 0.0000 2.9717
v  4.3200 0.0000 7.5784
v  1.3247 1.7543 7.5784
v  4.3200 1.7543 7.5784
v  4.3200 1.7543 2.9717
v  1.3247 1.7543 2.9717
v  3.1390 1.7543 6.0470
v  2.9925 1.7543 5.6934
v  2.9925 2.9543 5.6934
v  3.1390 2.9543 6.0470
v  2.6390 1.7543 5.5470
v  2.6390 2.9543 5.5470
v  2.2854 1.7543 5.6934
v  2.2854 2.9543 5.6934
v  2.1390 1.7543 6.0470
v  2.1390 2.9543 6.0470
v  2.2854 1.7543 6.4005
v  2.2854 2.9543 6.4005
v  2.6390 1.7543 6.5470
v  2.6390 2.9543 6.5470
v  2.9925 1.7543 6.4005
v  2.9925 2.9543 6.4005
v  2.9925 4.1543 5.6934
v  3.1390 4.1543 6.0470
v  2.6390 4.1543 5.5470
v  2.2854 4.1543 5.6934
v  2.1390 4.1543 6.0470
v  2.2854 4.1543 6.4005
v  2.6390 4.1543 6.5470
v  2.9925 4.1543 6.4005
v  2.9925 5.3543 5.6934
v  3.1390 5.3543 6.0470
v  2.6390 5.3543 5.5470
v  2.2854 5.3543 5.6934
v  2.1390 5.3543 6.0470
v  2.2854 5.3543 6.4005
v  2.6390 5.3543 6.5470
v  2.9925 5.3543 6.4005
v  2.9925 6.5543 5.6934
v  3.1390 6.5543 6.0470
v  2.6390 6.5543 5.5470
v  2.2854 6.5543 5.6934
v  2.1390 6.5543 6.0470
v  2.2854 6.5543 6.4005
v  2.6390 6.5543 6.5470
v  2.9925 6.5543 6.4005
v  2.9925 7.7543 5.6934
v  3.1390 7.7543 6.0470
v  2.6390 7.7543 5.5470
v  2.2854 7.7543 5.6934
v  2.1390 7.7543 6.0470
v  2.2854 7.7543 6.4005
v  2.6390 7.7543 6.5470
v  2.9925 7.7543 6.4005
v  3.1390 1.7543 4.1758
v  2.9925 1.7543 3.8222
v  2.9925 2.9543 3.8222
v  3.1390 2.9543 4.1758
v  2.6390 1.7543 3.6758
v  2.6390 2.9543 3.6758
v  2.2854 1.7543 3.8222
v  2.2854 2.9543 3.8222
v  2.1390 1.7543 4.1758
v  2.1390 2.9543 4.1758
v  2.2854 1.7543 4.5293
v  2.2854 2.9543 4.5293
v  2.6390 1.7543 4.6758
v  2.6390 2.9543 4.6758
v  2.9925 1.7543 4.5293
v  2.9925 2.9543 4.5293
v  2.9925 4.1543 3.8222
v  3.1390 4.1543 4.1758
v  2.6390 4.1543 3.6758
v  2.2854 4.1543 3.8222
v  2.1390 4.1543 4.1758
v  2.2854 4.1543 4.5293
v  2.6390 4.1543 4.6758
v  2.9925 4.1543 4.5293
v  2.9925 5.3543 3.8222
v  3.1390 5.3543 4.1758
v  2.6390 5.3543 3.6758
v  2.2854 5.3543 3.8222
v  2.1390 5.3543 4.1758
v  2.2854 5.3543 4.5293
v  2.6390 5.3543 4.6758
v  2.9925 5.3543 4.5293
v  2.9925 6.5543 3.8222
v  3.1390 6.5543 4.1758
v  2.6390 6.5543 3.6758
v  2.2854 6.5543 3.8222
v  2.1390 6.5543 4.1758
v  2.2854 6.5543 4.5293
v  2.6390 6.5543 4.6758
v  2.9925 6.5543 4.5293
v  2.9925 7.7543 3.8222
v  3.1390 7.7543 4.1758
v  2.6390 7.7543 3.6758
v  2.2854 7.7543 3.8222
v  2.1390 7.7543 4.1758
v  2.2854 7.7543 4.5293
v  2.6390 7.7543 4.6758
v  2.9925 7.7543 4.5293
# 132 vertices

vn 0.0000 -1.0000 -0.0000
vn -0.6832 0.7303 0.0008
vn -0.6823 0.7310 -0.0000
vn -0.6919 0.7219 -0.0107
vn -0.6911 0.7227 0.0124
vn 0.0000 0.0000 1.0000
vn 1.0000 0.0000 -0.0000
vn 0.0000 0.0000 -1.0000
vn -1.0000 0.0000 -0.0000
vn 0.6919 0.7219 0.0107
vn 0.6911 0.7227 -0.0124
vn 0.6832 0.7303 -0.0008
vn 0.6823 0.7310 -0.0000
vn -0.0277 -0.0158 0.9995
vn -0.0021 -0.0004 1.0000
vn -0.0006 -0.0010 1.0000
vn -0.0268 -0.0166 0.9995
vn 0.0281 -0.0179 0.9994
vn 0.0289 -0.0169 0.9994
vn 0.7034 -0.7108 -0.0000
vn 0.0277 -0.0158 -0.9995
vn 0.0021 -0.0004 -1.0000
vn 0.0006 -0.0010 -1.0000
vn 0.0268 -0.0166 -0.9995
vn -0.0281 -0.0179 -0.9994
vn -0.0289 -0.0169 -0.9994
vn -0.7034 -0.7108 -0.0000
vn 0.7056 -0.7086 -0.0000
vn -0.7056 -0.7086 -0.0000
vn -0.6940 0.7198 0.0145
vn -0.6841 0.7294 -0.0000
vn -0.6951 0.7187 -0.0149
vn -0.6825 0.7309 -0.0015
vn 0.6940 0.7198 -0.0145
vn 0.6841 0.7294 -0.0000
vn 0.6951 0.7187 0.0149
vn 0.6825 0.7309 0.0015
vn 0.0000 1.0000 -0.0000
vn 0.9239 0.0000 -0.3827
vn 0.7071 0.0000 -0.7071
vn 0.3827 0.0000 -0.9239
vn -0.3827 0.0000 -0.9239
vn -0.7071 0.0000 -0.7071
vn -0.9239 0.0000 -0.3827
vn -0.9239 0.0000 0.3827
vn -0.7071 0.0000 0.7071
vn 0.7071 0.0000 0.7071
vn 0.9239 0.0000 0.3827
# 48 vertex normals

vt 1.0000 0.0000 0.0000
vt 1.0000 1.0000 0.0000
vt 0.0000 1.0000 0.0000
vt 0.0000 0.0000 0.0000
vt 0.5000 0.0000 0.0000
vt 0.5000 1.0000 0.0000
vt 0.7500 0.0000 1.0000
vt 0.8750 0.0000 1.0000
vt 0.8750 0.2000 1.0000
vt 0.7500 0.2000 1.0000
vt 1.0000 0.0000 1.0000
vt 1.0000 0.2000 1.0000
vt 0.0000 0.0000 1.0000
vt 0.1250 0.0000 1.0000
vt 0.1250 0.2000 1.0000
vt 0.0000 0.2000 1.0000
vt 0.2500 0.0000 1.0000
vt 0.2500 0.2000 1.0000
vt 0.3750 0.0000 1.0000
vt 0.3750 0.2000 1.0000
vt 0.5000 0.0000 1.0000
vt 0.5000 0.2000 1.0000
vt 0.6250 0.0000 1.0000
vt 0.6250 0.2000 1.0000
vt 0.8750 0.4000 1.0000
vt 0.7500 0.4000 1.0000
vt 1.0000 0.4000 1.0000
vt 0.1250 0.4000 1.0000
vt 0.0000 0.4000 1.0000
vt 0.2500 0.4000 1.0000
vt 0.3750 0.4000 1.0000
vt 0.5000 0.4000 1.0000
vt 0.6250 0.4000 1.0000
vt 0.8750 0.6000 1.0000
vt 0.7500 0.6000 1.0000
vt 1.0000 0.6000 1.0000
vt 0.1250 0.6000 1.0000
vt 0.0000 0.6000 1.0000
vt 0.2500 0.6000 1.0000
vt 0.3750 0.6000 1.0000
vt 0.5000 0.6000 1.0000
vt 0.6250 0.6000 1.0000
vt 0.8750 0.8000 1.0000
vt 0.7500 0.8000 1.0000
vt 1.0000 0.8000 1.0000
vt 0.1250 0.8000 1.0000
vt 0.0000 0.8000 1.0000
vt 0.2500 0.8000 1.0000
vt 0.3750 0.8000 1.0000
vt 0.5000 0.8000 1.0000
vt 0.6250 0.8000 1.0000
vt 0.8750 1.0000 1.0000
vt 0.7500 1.0000 1.0000
vt 1.0000 1.0000 1.0000
vt 0.1250 1.0000 1.0000
vt 0.0000 1.0000 1.0000
vt 0.2500 1.0000 1.0000
vt 0.3750 1.0000 1.0000
vt 0.5000 1.0000 1.0000
vt 0.6250 1.0000 1.0000
vt 1.0000 0.5000 -0.2500
vt 0.8536 0.1464 -0.2500
vt 0.5000 0.0000 -0.2500
vt 0.1464 0.1464 -0.2500
vt 0.0000 0.5000 -0.2500
vt 0.1464 0.8536 -0.2500
vt 0.5000 1.0000 -0.2500
vt 0.8536 0.8536 -0.2500
vt 0.1464 0.8536 0.2500
vt 0.0000 0.5000 0.2500
vt 0.1464 0.1464 0.2500
vt 0.5000 0.0000 0.2500
vt 0.8536 0.1464 0.2500
vt 1.0000 0.5000 0.2500
vt 0.8536 0.8536 0.2500
vt 0.5000 1.0000 0.2500
# 76 texture coords

g Box001
s 1
f 1/1/1 2/2/1 3/3/1 
f 3/3/1 4/4/1 1/1/1 
f 5/5/2 6/6/3 7/3/4 
f 7/3/4 8/4/5 5/5/2 
s 2
f 1/4/6 4/1/6 9/2/6 
f 1/4/6 9/2/6 10/6/6 
f 1/4/6 10/6/6 11/3/6 
s 4
f 4/4/7 3/1/7 12/2/7 
f 12/2/7 9/3/7 4/4/7 
s 2
f 3/4/8 2/1/8 13/2/8 
f 3/4/8 13/2/8 14/6/8 
f 3/4/8 14/6/8 12/3/8 
s 4
f 2/4/9 1/1/9 11/2/9 
f 11/2/9 13/3/9 2/4/9 
s 2
f 15/1/10 16/2/11 6/6/12 
f 6/6/12 5/5/13 15/1/10 
s 4
f 17/3/14 18/6/15 19/5/16 
f 19/5/16 20/4/17 17/3/14 
f 18/6/15 21/2/18 22/1/19 
f 22/1/19 19/5/16 18/6/15 
s 1
f 21/3/20 23/2/20 24/2/20 
f 24/2/20 22/1/20 21/3/20 
s 4
f 23/3/21 25/6/22 26/6/23 
f 26/6/23 24/2/24 23/3/21 
f 25/6/22 27/2/25 28/3/26 
f 28/3/26 26/6/23 25/6/22 
s 2
f 27/3/27 17/2/27 20/4/27 
f 20/4/27 28/3/27 27/3/27 
s 1
f 11/3/28 10/6/28 18/6/28 
f 18/6/28 17/3/28 11/3/28 
s 8
f 10/6/29 9/2/29 21/2/29 
f 21/2/29 18/6/29 10/6/29 
f 9/3/29 12/2/29 23/2/29 
f 23/2/29 21/3/29 9/3/29 
f 12/3/29 14/6/29 25/6/29 
f 25/6/29 23/3/29 12/3/29 
s 1
f 14/6/28 13/2/28 27/2/28 
f 27/2/28 25/6/28 14/6/28 
f 13/3/28 11/2/28 17/2/28 
f 17/2/28 27/3/28 13/3/28 
f 5/5/2 8/4/5 20/4/30 
f 20/4/30 19/5/31 5/5/2 
f 8/4/5 7/3/4 28/3/32 
f 28/3/32 20/4/30 8/4/5 
f 7/3/4 6/6/3 26/6/33 
f 26/6/33 28/3/32 7/3/4 
s 2
f 6/6/12 16/2/11 24/2/34 
f 24/2/34 26/6/35 6/6/12 
f 16/2/11 15/1/10 22/1/36 
f 22/1/36 24/2/34 16/2/11 
f 15/1/10 5/5/13 19/5/37 
f 19/5/37 22/1/36 15/1/10 
s 1
f 29/1/1 30/2/1 31/3/1 
f 31/3/1 32/4/1 29/1/1 
f 33/4/38 34/1/38 35/2/38 
f 35/2/38 36/3/38 33/4/38 
s 2
f 29/4/6 32/1/6 34/2/6 
f 34/2/6 33/3/6 29/4/6 
s 4
f 32/4/7 31/1/7 35/2/7 
f 35/2/7 34/3/7 32/4/7 
s 2
f 31/4/8 30/1/8 36/2/8 
f 36/2/8 35/3/8 31/4/8 
s 4
f 30/4/9 29/1/9 33/2/9 
f 33/2/9 36/3/9 30/4/9 
s 1
f 37/7/39 38/8/40 39/9/40 
f 39/9/40 40/10/39 37/7/39 
f 38/8/40 41/11/41 42/12/41 
f 42/12/41 39/9/40 38/8/40 
s 2
f 41/13/42 43/14/43 44/15/43 
f 44/15/43 42/16/42 41/13/42 
f 43/14/43 45/17/44 46/18/44 
f 46/18/44 44/15/43 43/14/43 
s 4
f 45/17/45 47/19/46 48/20/46 
f 48/20/46 46/18/45 45/17/45 
f 47/19/46 49/21/6 50/22/6 
f 50/22/6 48/20/46 47/19/46 
f 49/21/6 51/23/47 52/24/47 
f 52/24/47 50/22/6 49/21/6 
f 51/23/47 37/7/48 40/10/48 
f 40/10/48 52/24/47 51/23/47 
s 1
f 40/10/39 39/9/40 53/25/40 
f 53/25/40 54/26/39 40/10/39 
f 39/9/40 42/12/41 55/27/41 
f 55/27/41 53/25/40 39/9/40 
s 2
f 42/16/42 44/15/43 56/28/43 
f 56/28/43 55/29/42 42/16/42 
f 44/15/43 46/18/44 57/30/44 
f 57/30/44 56/28/43 44/15/43 
s 4
f 46/18/45 48/20/46 58/31/46 
f 58/31/46 57/30/45 46/18/45 
f 48/20/46 50/22/6 59/32/6 
f 59/32/6 58/31/46 48/20/46 
f 50/22/6 52/24/47 60/33/47 
f 60/33/47 59/32/6 50/22/6 
f 52/24/47 40/10/48 54/26/48 
f 54/26/48 60/33/47 52/24/47 
s 1
f 54/26/39 53/25/40 61/34/40 
f 61/34/40 62/35/39 54/26/39 
f 53/25/40 55/27/41 63/36/41 
f 63/36/41 61/34/40 53/25/40 
s 2
f 55/29/42 56/28/43 64/37/43 
f 64/37/43 63/38/42 55/29/42 
f 56/28/43 57/30/44 65/39/44 
f 65/39/44 64/37/43 56/28/43 
s 4
f 57/30/45 58/31/46 66/40/46 
f 66/40/46 65/39/45 57/30/45 
f 58/31/46 59/32/6 67/41/6 
f 67/41/6 66/40/46 58/31/46 
f 59/32/6 60/33/47 68/42/47 
f 68/42/47 67/41/6 59/32/6 
f 60/33/47 54/26/48 62/35/48 
f 62/35/48 68/42/47 60/33/47 
s 1
f 62/35/39 61/34/40 69/43/40 
f 69/43/40 70/44/39 62/35/39 
f 61/34/40 63/36/41 71/45/41 
f 71/45/41 69/43/40 61/34/40 
s 2
f 63/38/42 64/37/43 72/46/43 
f 72/46/43 71/47/42 63/38/42 
f 64/37/43 65/39/44 73/48/44 
f 73/48/44 72/46/43 64/37/43 
s 4
f 65/39/45 66/40/46 74/49/46 
f 74/49/46 73/48/45 65/39/45 
f 66/40/46 67/41/6 75/50/6 
f 75/50/6 74/49/46 66/40/46 
f 67/41/6 68/42/47 76/51/47 
f 76/51/47 75/50/6 67/41/6 
f 68/42/47 62/35/48 70/44/48 
f 70/44/48 76/51/47 68/42/47 
s 1
f 70/44/39 69/43/40 77/52/40 
f 77/52/40 78/53/39 70/44/39 
f 69/43/40 71/45/41 79/54/41 
f 79/54/41 77/52/40 69/43/40 
s 2
f 71/47/42 72/46/43 80/55/43 
f 80/55/43 79/56/42 71/47/42 
f 72/46/43 73/48/44 81/57/44 
f 81/57/44 80/55/43 72/46/43 
s 4
f 73/48/45 74/49/46 82/58/46 
f 82/58/46 81/57/45 73/48/45 
f 74/49/46 75/50/6 83/59/6 
f 83/59/6 82/58/46 74/49/46 
f 75/50/6 76/51/47 84/60/47 
f 84/60/47 83/59/6 75/50/6 
f 76/51/47 70/44/48 78/53/48 
f 78/53/48 84/60/47 76/51/47 
s 8
f 49/61/1 47/62/1 45/63/1 
f 45/63/1 43/64/1 41/65/1 
f 41/65/1 38/66/1 37/67/1 
f 45/63/1 41/65/1 37/67/1 
f 49/61/1 45/63/1 37/67/1 
f 51/68/1 49/61/1 37/67/1 
f 77/69/38 79/70/38 80/71/38 
f 80/71/38 81/72/38 82/73/38 
f 82/73/38 83/74/38 84/75/38 
f 80/71/38 82/73/38 84/75/38 
f 77/69/38 80/71/38 84/75/38 
f 78/76/38 77/69/38 84/75/38 
s 1
f 85/7/39 86/8/40 87/9/40 
f 87/9/40 88/10/39 85/7/39 
f 86/8/40 89/11/41 90/12/41 
f 90/12/41 87/9/40 86/8/40 
s 2
f 89/13/42 91/14/43 92/15/43 
f 92/15/43 90/16/42 89/13/42 
f 91/14/43 93/17/44 94/18/44 
f 94/18/44 92/15/43 91/14/43 
s 4
f 93/17/45 95/19/46 96/20/46 
f 96/20/46 94/18/45 93/17/45 
f 95/19/46 97/21/6 98/22/6 
f 98/22/6 96/20/46 95/19/46 
f 97/21/6 99/23/47 100/24/47 
f 100/24/47 98/22/6 97/21/6 
f 99/23/47 85/7/48 88/10/48 
f 88/10/48 100/24/47 99/23/47 
s 1
f 88/10/39 87/9/40 101/25/40 
f 101/25/40 102/26/39 88/10/39 
f 87/9/40 90/12/41 103/27/41 
f 103/27/41 101/25/40 87/9/40 
s 2
f 90/16/42 92/15/43 104/28/43 
f 104/28/43 103/29/42 90/16/42 
f 92/15/43 94/18/44 105/30/44 
f 105/30/44 104/28/43 92/15/43 
s 4
f 94/18/45 96/20/46 106/31/46 
f 106/31/46 105/30/45 94/18/45 
f 96/20/46 98/22/6 107/32/6 
f 107/32/6 106/31/46 96/20/46 
f 98/22/6 100/24/47 108/33/47 
f 108/33/47 107/32/6 98/22/6 
f 100/24/47 88/10/48 102/26/48 
f 102/26/48 108/33/47 100/24/47 
s 1
f 102/26/39 101/25/40 109/34/40 
f 109/34/40 110/35/39 102/26/39 
f 101/25/40 103/27/41 111/36/41 
f 111/36/41 109/34/40 101/25/40 
s 2
f 103/29/42 104/28/43 112/37/43 
f 112/37/43 111/38/42 103/29/42 
f 104/28/43 105/30/44 113/39/44 
f 113/39/44 112/37/43 104/28/43 
s 4
f 105/30/45 106/31/46 114/40/46 
f 114/40/46 113/39/45 105/30/45 
f 106/31/46 107/32/6 115/41/6 
f 115/41/6 114/40/46 106/31/46 
f 107/32/6 108/33/47 116/42/47 
f 116/42/47 115/41/6 107/32/6 
f 108/33/47 102/26/48 110/35/48 
f 110/35/48 116/42/47 108/33/47 
s 1
f 110/35/39 109/34/40 117/43/40 
f 117/43/40 118/44/39 110/35/39 
f 109/34/40 111/36/41 119/45/41 
f 119/45/41 117/43/40 109/34/40 
s 2
f 111/38/42 112/37/43 120/46/43 
f 120/46/43 119/47/42 111/38/42 
f 112/37/43 113/39/44 121/48/44 
f 121/48/44 120/46/43 112/37/43 
s 4
f 113/39/45 114/40/46 122/49/46 
f 122/49/46 121/48/45 113/39/45 
f 114/40/46 115/41/6 123/50/6 
f 123/50/6 122/49/46 114/40/46 
f 115/41/6 116/42/47 124/51/47 
f 124/51/47 123/50/6 115/41/6 
f 116/42/47 110/35/48 118/44/48 
f 118/44/48 124/51/47 116/42/47 
s 1
f 118/44/39 117/43/40 125/52/40 
f 125/52/40 126/53/39 118/44/39 
f 117/43/40 119/45/41 127/54/41 
f 127/54/41 125/52/40 117/43/40 
s 2
f 119/47/42 120/46/43 128/55/43 
f 128/55/43 127/56/42 119/47/42 
f 120/46/43 121/48/44 129/57/44 
f 129/57/44 128/55/43 120/46/43 
s 4
f 121/48/45 122/49/46 130/58/46 
f 130/58/46 129/57/45 121/48/45 
f 122/49/46 123/50/6 131/59/6 
f 131/59/6 130/58/46 122/49/46 
f 123/50/6 124/51/47 132/60/47 
f 132/60/47 131/59/6 123/50/6 
f 124/51/47 118/44/48 126/53/48 
f 126/53/48 132/60/47 124/51/47 
s 8
f 97/61/1 95/62/1 93/63/1 
f 93/63/1 91/64/1 89/65/1 
f 89/65/1 86/66/1 85/67/1 
f 93/63/1 89/65/1 85/67/1 
f 97/61/1 93/63/1 85/67/1 
f 99/68/1 97/61/1 85/67/1 
f 125/69/38 127/70/38 128/71/38 
f 128/71/38 129/72/38 130/73/38 
f 130/73/38 131/74/38 132/75/38 
f 128/71/38 130/73/38 132/75/38 
f 125/69/38 128/71/38 132/75/38 
f 126/76/38 125/69/38 132/75/38 
# 248 faces

