# 3ds Max Wavefront OBJ Exporter v0.97b - (c)2007 guruware
# File Created: 14.07.2013 13:31:51

#
# object Box001
#

v  1.5000 0.0000 9.0000
v  1.5000 0.0000 1.0000
v  8.5000 0.0000 1.0000
v  8.5000 0.0000 9.0000
v  1.5000 3.8930 9.0000
v  8.5000 3.8930 9.0000
v  8.5000 3.8930 1.0000
v  1.5000 3.8930 1.0000
v  8.5000 3.5000 9.0000
v  1.5000 3.5000 9.0000
v  8.5000 3.5000 1.0000
v  1.5000 3.5000 1.0000
v  1.0121 3.5000 9.4879
v  8.9879 3.5000 9.4879
v  8.9879 3.8930 9.4879
v  1.0121 3.8930 9.4879
v  8.9879 3.5000 0.5121
v  8.9879 3.8930 0.5121
v  1.0121 3.5000 0.5121
v  1.0121 3.8930 0.5121
v  1.0121 3.5000 9.0000
v  1.0121 3.8930 9.0000
v  1.0121 3.8930 1.0000
v  1.0121 3.5000 1.0000
v  1.5000 5.2526 9.0000
v  1.5000 5.2526 1.0000
v  1.0121 5.2526 1.0000
v  1.0121 5.2526 9.0000
# 28 vertices

vn 0.0000 -1.0000 -0.0000
vn 0.0000 1.0000 -0.0000
vn 0.0000 0.0000 1.0000
vn 1.0000 0.0000 -0.0000
vn 0.0000 0.0000 -1.0000
vn -1.0000 0.0000 -0.0000
# 6 vertex normals

vt 1.0000 0.0000 0.0000
vt 1.0000 1.0000 0.0000
vt 0.0000 1.0000 0.0000
vt 0.0000 0.0000 0.0000
vt 0.6667 1.0000 0.0000
vt 0.0000 0.3333 0.0000
vt 0.0000 0.6667 0.0000
vt 0.3333 1.0000 0.0000
# 8 texture coords

g Box001
s 2
f 1/1/1 2/2/1 3/3/1 
f 3/3/1 4/4/1 1/1/1 
s 4
f 5/4/2 6/1/2 7/2/2 
f 7/2/2 8/3/2 5/4/2 
s 8
f 1/4/3 4/1/3 9/2/3 
f 9/2/3 10/3/3 1/4/3 
s 16
f 4/4/4 3/1/4 11/2/4 
f 11/2/4 9/3/4 4/4/4 
s 32
f 3/4/5 2/1/5 12/2/5 
f 12/2/5 11/3/5 3/4/5 
s 64
f 2/4/6 1/1/6 10/2/6 
f 10/2/6 12/3/6 2/4/6 
s off
f 13/3/3 14/2/3 15/1/3 
f 15/1/3 16/4/3 13/3/3 
f 14/3/4 17/2/4 18/2/4 
f 18/2/4 15/1/4 14/3/4 
f 17/3/5 19/2/5 20/3/5 
f 20/3/5 18/2/5 17/3/5 
f 21/5/6 22/6/6 23/7/6 
f 23/7/6 24/8/6 21/5/6 
f 10/3/1 9/2/1 14/2/1 
f 14/2/1 13/3/1 10/3/1 
f 9/3/1 11/2/1 17/2/1 
f 17/2/1 14/3/1 9/3/1 
f 11/3/1 12/2/1 19/2/1 
f 19/2/1 17/3/1 11/3/1 
f 12/3/1 24/8/1 19/3/1 
f 6/1/2 5/4/2 16/4/2 
f 16/4/2 15/1/2 6/1/2 
f 5/4/2 22/6/2 16/4/2 
f 8/3/2 7/2/2 18/2/2 
f 18/2/2 20/3/2 8/3/2 
f 7/2/2 6/1/2 15/1/2 
f 15/1/2 18/2/2 7/2/2 
f 13/2/6 16/4/6 22/6/6 
f 22/6/6 21/5/6 13/2/6 
f 20/3/6 19/3/6 24/8/6 
f 24/8/6 23/7/6 20/3/6 
f 8/3/2 20/3/2 23/7/2 
f 10/2/1 21/5/1 24/8/1 
f 24/8/1 12/3/1 10/2/1 
f 25/4/2 26/3/2 27/7/2 
f 27/7/2 28/6/2 25/4/2 
f 10/2/1 13/2/1 21/5/1 
f 5/4/4 8/3/4 26/3/4 
f 26/3/4 25/4/4 5/4/4 
f 8/3/5 23/7/5 27/7/5 
f 27/7/5 26/3/5 8/3/5 
f 23/7/6 22/6/6 28/6/6 
f 28/6/6 27/7/6 23/7/6 
f 22/6/3 5/4/3 25/4/3 
f 25/4/3 28/6/3 22/6/3 
# 52 faces

