# 3ds Max Wavefront OBJ Exporter v0.97b - (c)2007 guruware
# File Created: 14.07.2013 11:48:02

#
# object Box001
#

v  3.7920 0.0000 8.5448
v  3.7920 0.0000 1.3972
v  8.3910 0.0000 1.3972
v  8.3910 0.0000 8.5448
v  6.0915 7.0099 8.5448
v  6.0915 7.0099 1.3972
v  3.7920 4.9429 1.3972
v  3.7920 4.9429 8.5448
v  8.3910 4.3689 8.5448
v  6.0915 6.4359 8.5448
v  3.7920 4.3689 8.5448
v  8.3910 4.3689 1.3972
v  3.7920 4.3689 1.3972
v  6.0915 6.4359 1.3972
v  8.3910 4.9429 8.5448
v  8.3910 4.9429 1.3972
v  3.7920 4.3689 9.1187
v  6.0915 6.4359 9.1187
v  6.0915 7.0099 9.1187
v  3.7920 4.9429 9.1187
v  8.3910 4.3689 9.1187
v  8.3910 4.9429 9.1187
v  8.3910 4.3689 0.8232
v  6.0915 6.4359 0.8232
v  6.0915 7.0099 0.8232
v  8.3910 4.9429 0.8232
v  3.7920 4.3689 0.8232
v  3.7920 4.9429 0.8232
v  0.7533 0.0000 5.4707
v  0.7533 0.0000 2.0236
v  4.0179 0.0000 2.0236
v  4.0179 0.0000 5.4707
v  0.7533 3.2926 5.4707
v  4.0179 3.2926 5.4707
v  4.0179 3.2926 2.0236
v  0.7533 3.2926 2.0236
# 36 vertices

vn 0.0000 -1.0000 -0.0000
vn -0.6685 0.7437 -0.0000
vn 0.0000 0.0000 1.0000
vn 1.0000 0.0000 -0.0000
vn 0.0000 0.0000 -1.0000
vn -1.0000 0.0000 -0.0000
vn 0.6685 0.7437 -0.0000
vn 0.6685 -0.7437 -0.0000
vn -0.6685 -0.7437 -0.0000
vn 0.0000 1.0000 -0.0000
# 10 vertex normals

vt 1.0000 0.0000 0.0000
vt 1.0000 1.0000 0.0000
vt 0.0000 1.0000 0.0000
vt 0.0000 0.0000 0.0000
vt 0.5000 0.0000 0.0000
vt 0.5000 1.0000 0.0000
# 6 texture coords

g Box001
s 1
f 1/1/1 2/2/1 3/3/1 
f 3/3/1 4/4/1 1/1/1 
f 5/5/2 6/6/2 7/3/2 
f 7/3/2 8/4/2 5/5/2 
s 2
f 1/4/3 4/1/3 9/2/3 
f 1/4/3 9/2/3 10/6/3 
f 1/4/3 10/6/3 11/3/3 
s 4
f 4/4/4 3/1/4 12/2/4 
f 12/2/4 9/3/4 4/4/4 
s 2
f 3/4/5 2/1/5 13/2/5 
f 3/4/5 13/2/5 14/6/5 
f 3/4/5 14/6/5 12/3/5 
s 4
f 2/4/6 1/1/6 11/2/6 
f 11/2/6 13/3/6 2/4/6 
s 2
f 15/1/7 16/2/7 6/6/7 
f 6/6/7 5/5/7 15/1/7 
s 8
f 17/3/3 18/6/3 19/5/3 
f 19/5/3 20/4/3 17/3/3 
f 18/6/3 21/2/3 22/1/3 
f 22/1/3 19/5/3 18/6/3 
s 4
f 9/3/4 12/2/4 16/2/4 
f 16/2/4 15/1/4 9/3/4 
s 8
f 23/3/5 24/6/5 25/6/5 
f 25/6/5 26/2/5 23/3/5 
f 24/6/5 27/2/5 28/3/5 
f 28/3/5 25/6/5 24/6/5 
s 4
f 13/3/6 11/2/6 8/4/6 
f 8/4/6 7/3/6 13/3/6 
s 1
f 11/3/8 10/6/8 18/6/8 
f 18/6/8 17/3/8 11/3/8 
s 16
f 10/6/9 9/2/9 21/2/9 
f 21/2/9 18/6/9 10/6/9 
s 4
f 9/3/4 15/1/4 22/1/4 
f 22/1/4 21/2/4 9/3/4 
s 2
f 15/1/7 5/5/7 19/5/7 
f 19/5/7 22/1/7 15/1/7 
s 1
f 5/5/2 8/4/2 20/4/2 
f 20/4/2 19/5/2 5/5/2 
s 4
f 8/4/6 11/2/6 17/3/6 
f 17/3/6 20/4/6 8/4/6 
s 1
f 12/3/9 14/6/9 24/6/9 
f 24/6/9 23/3/9 12/3/9 
s 16
f 14/6/8 13/2/8 27/2/8 
f 27/2/8 24/6/8 14/6/8 
s 4
f 13/3/6 7/3/6 28/3/6 
f 28/3/6 27/2/6 13/3/6 
s 1
f 7/3/2 6/6/2 25/6/2 
f 25/6/2 28/3/2 7/3/2 
s 2
f 6/6/7 16/2/7 26/2/7 
f 26/2/7 25/6/7 6/6/7 
s 4
f 16/2/4 12/2/4 23/3/4 
f 23/3/4 26/2/4 16/2/4 
s 1
f 29/1/1 30/2/1 31/3/1 
f 31/3/1 32/4/1 29/1/1 
f 33/4/10 34/1/10 35/2/10 
f 35/2/10 36/3/10 33/4/10 
s 2
f 29/4/3 32/1/3 34/2/3 
f 34/2/3 33/3/3 29/4/3 
s 4
f 32/4/4 31/1/4 35/2/4 
f 35/2/4 34/3/4 32/4/4 
s 2
f 31/4/5 30/1/5 36/2/5 
f 36/2/5 35/3/5 31/4/5 
s 4
f 30/4/6 29/1/6 33/2/6 
f 33/2/6 36/3/6 30/4/6 
# 64 faces

